# xmcd CD database file
#
# Track frame offsets:
#	150
#	17194
#	37638
#	62907
#
# Disc length: 1121 seconds
#
# Revision: 4
# Processed by: cddbd v1.5.2PL0 Copyright (c) Steve Scherf et al.
# Submitted via: CDex 1.70beta2
#
DISCID=28045f04
DTITLE=FOR ABSENT FRIENDS - SILLY LOVE SONG
DYEAR=1998
DGENRE=
TTITLE0=SILLY LOVE SONG (remixed radio edit)
TTITLE1=SILLY LOVE SONG (album version)
TTITLE2=FIGHT '98
TTITLE3=SILLY LOVE SONG (extended remixed version)
EXTD=YEAR: 1998
EXTT0=
EXTT1=
EXTT2=
EXTT3=
PLAYORDER=
